<svg width="191" height="191" viewBox="0 0 191 191" fill="none" xmlns="http://www.w3.org/2000/svg">
<path fill-rule="evenodd" clip-rule="evenodd" d="M99.3385 117.419C101.449 119.951 101.107 123.715 98.5743 125.825L82.813 138.96L98.5743 152.094C101.107 154.205 101.449 157.968 99.3385 160.501C97.2282 163.033 93.4645 163.375 90.9321 161.265L70.0123 143.832C66.9699 141.296 66.9698 136.623 70.0123 134.088L90.9321 116.655C93.4645 114.544 97.2282 114.887 99.3385 117.419Z" fill="#EA4335"/>
<path fill-rule="evenodd" clip-rule="evenodd" d="M127.474 117.419C125.364 119.951 125.706 123.715 128.238 125.825L143.999 138.96L128.238 152.094C125.706 154.205 125.364 157.968 127.474 160.501C129.584 163.033 133.348 163.375 135.88 161.265L156.8 143.832C159.843 141.296 159.843 136.623 156.8 134.088L135.88 116.655C133.348 114.544 129.584 114.887 127.474 117.419Z" fill="#EA4335"/>
<path fill-rule="evenodd" clip-rule="evenodd" d="M71.252 36.1855C56.0059 36.1855 43.6465 48.5449 43.6465 63.791C43.6465 79.0371 56.0059 91.3965 71.252 91.3965H98.4844V103.334H71.252C49.413 103.334 31.709 85.63 31.709 63.791C31.709 41.952 49.413 24.248 71.252 24.248H110.049C113.345 24.248 116.018 26.9203 116.018 30.2168C116.018 33.5132 113.345 36.1855 110.049 36.1855H71.252Z" fill="#4285F4"/>
<path fill-rule="evenodd" clip-rule="evenodd" d="M119.748 36.1855C134.994 36.1855 147.354 48.5449 147.354 63.791C147.354 79.0371 134.994 91.3965 119.748 91.3965H80.9512C77.6547 91.3965 74.9824 94.0688 74.9824 97.3652C74.9824 100.662 77.6547 103.334 80.9512 103.334H119.748C141.587 103.334 159.291 85.63 159.291 63.791C159.291 41.952 141.587 24.248 119.748 24.248H80.9512C77.6547 24.248 74.9824 26.9203 74.9824 30.2168C74.9824 33.5132 77.6547 36.1855 80.9512 36.1855H119.748Z" fill="#34A853"/>
<path fill-rule="evenodd" clip-rule="evenodd" d="M43.6465 123.479H53.3457C56.6422 123.479 59.3145 120.806 59.3145 117.51C59.3145 114.213 56.6422 111.541 53.3457 111.541H41.4082C36.0515 111.541 31.709 115.884 31.709 121.24V157.053C31.709 162.409 36.0515 166.752 41.4082 166.752H53.3457C56.6422 166.752 59.3145 164.08 59.3145 160.783C59.3145 157.487 56.6422 154.814 53.3457 154.814H43.6465V123.479Z" fill="#FBBC04"/>
<path fill-rule="evenodd" clip-rule="evenodd" d="M122.359 97.3652C122.359 94.0688 119.687 91.3965 116.391 91.3965H80.9512C77.6547 91.3965 74.9824 94.0688 74.9824 97.3652C74.9824 100.662 77.6547 103.334 80.9512 103.334H116.391C119.687 103.334 122.359 100.662 122.359 97.3652Z" fill="#4285F4"/>
<path d="M79.459 63.791C79.459 67.4995 76.4526 70.5059 72.7441 70.5059C69.0356 70.5059 66.0293 67.4995 66.0293 63.791C66.0293 60.0825 69.0356 57.0762 72.7441 57.0762C76.4526 57.0762 79.459 60.0825 79.459 63.791Z" fill="#4285F4"/>
<path d="M125.717 63.791C125.717 67.4995 122.71 70.5059 119.002 70.5059C115.293 70.5059 112.287 67.4995 112.287 63.791C112.287 60.0825 115.293 57.0762 119.002 57.0762C122.71 57.0762 125.717 60.0825 125.717 63.791Z" fill="#4285F4"/>
</svg>
